<?xml version="1.0" encoding="utf-8"?>
<!-- Svg Vector Icons : http://www.onlinewebfonts.com/icon -->
<!DOCTYPE svg PUBLIC "-//W3C//DTD SVG 1.1//EN" "http://www.w3.org/Graphics/SVG/1.1/DTD/svg11.dtd">
<svg version="1.1" xmlns="http://www.w3.org/2000/svg" xmlns:xlink="http://www.w3.org/1999/xlink" x="0px" y="0px" viewBox="0 0 256 256" enable-background="new 0 0 256 256" xml:space="preserve">
<metadata> Svg Vector Icons : http://www.onlinewebfonts.com/icon </metadata>
<g><g><path fill="#000000" d="M243.3,61.8c-1.8-1.9-3.9-3.1-6-4.2c-26.6-13-53.1-25.9-79.6-38.9c-8.5-4.2-16.9-8.4-26.4-8.7c-0.9,0-1.7,0-2.6,0c-7.1,0-14.2,0.8-20.8,4.1c-29.7,14.4-59.4,29-89.1,43.5c-2.3,1.1-4.6,2.5-6.4,4.6c-3.2,3.6-3.1,7.4,0,11c2.2,2.6,5,3.9,7.9,5.3c13.7,6.7,27.3,13.4,40.9,20.1c5.8,2.8,11.5,5.7,17.3,8.5c7.8,3.8,15.5,7.6,23.3,11.4c8.1,4,16.2,7.1,23.3,7.1c0.3,0,0.7,0,1.1,0c9.4,0,16.5-1.3,23.4-4.7c9.3-4.6,18.7-9.2,28-13.7c5.8-2.8,11.5-5.7,17.3-8.5c13.7-6.7,27.5-13.4,41.2-20.2c2.6-1.3,5.3-2.6,7.5-5C246.9,69.7,246.8,65.4,243.3,61.8z M143,108.7c-4.6,2.3-9.5,4.5-17,4.5h-1c-2.6,0-7.6-2.2-16.8-6.8C103.8,104.2,31.8,68,31.8,68s60.9-30,82.5-40.6c3.7-1.8,8.1-2.7,14.4-2.7l2.2,0c6.1,0.2,12.4,3.3,20.3,7.2c19.6,9.6,73.1,35.7,73.1,35.7S148.9,105.8,143,108.7z"/><path fill="#000000" d="M238.3,118.5c-5.8-2.8-27.7-13-27.7-13c-5.3,2.6-10.6,5.2-15.8,7.8c-0.5,0.2-1,0.5-1.5,0.7c0,0,27.9,12.5,30.9,14l-81.8,40c-3.9,1.9-8.4,2.8-14.9,3l-0.8,0c-6,0-12.2-2.5-20.2-6.4c-3.7-1.9-74.7-36.6-74.7-36.6c2.9-1.4,30.9-14,30.9-14l-17.3-8.5c0,0-21.4,9.9-26.6,12.5c-2.3,1.2-4.6,2.5-6.4,4.6c-3.1,3.6-3.1,7.5,0.1,11c2,2.3,4.6,3.6,7.2,4.9c13.7,6.7,72.9,35.7,80.2,39.3c8.6,4.3,17.3,8,26.8,8c0.5,0,0.9,0,1.4,0c7.1-0.2,14.1-1.2,20.8-4.5c9.8-4.8,74.5-36.5,88.6-43.3c2.1-1,4.1-2.3,5.9-4.1c3.5-3.7,3.5-7.8,0.1-11.6C242,120.6,240.2,119.4,238.3,118.5z"/><path fill="#000000" d="M244.1,183.3c-1.7-2.2-3.9-3.6-6.2-4.8c-5.1-2.5-27.1-12.8-27.1-12.8c-5.2,2.6-10.4,5.1-15.6,7.6c-0.5,0.3-1,0.5-1.5,0.7l30.5,14.2c0,0-61.2,29.8-80.6,39.4c-4.7,2.3-9.9,3.5-16.1,3.5h-0.8h-0.1c-5.1,0-10.4-1.6-18.5-5.6c-19-9.4-76.3-37.4-76.3-37.4c2.8-1.4,30.5-14.1,30.5-14.1s-12-5.9-17.1-8.4c0,0-21.9,10.3-27.3,13c-2.2,1.1-4.2,2.5-5.9,4.5c-2.6,3.2-2.6,6.5-0.2,9.8c1.8,2.5,4.2,4,6.8,5.2c27.7,13.5,55.3,26.9,82.9,40.6c8,4,16.2,7.1,25,7.1c0.3,0,0.7,0,1.1,0c7.8-0.1,15.3-1.5,22.5-5c29.1-14.3,58.2-28.5,87.4-42.7c2.6-1.3,5.1-2.8,6.9-5.4C246.6,189.5,246.5,186.4,244.1,183.3z"/></g></g>
</svg>